PathFileType	4	(X/Y/Z)	Walk4.trc
DataRate	CameraRate	NumFrames	NumMarkers	Units	OrigDataRate	OrigDataStartFrame	OrigNumFrames
200.000000	200.000000	4	61	mm	200.000000	714	877
Frame#	Times		RCAR		LTH3		RTH2		LBHD		LWRU		LUA1		LFA1		LCAR		RFA1		LElbow		RTB3		RTB1		RToe		RTB2		RMT5		RBHD		LWRR		LTH2		LElbowM		RPSI		C7		RLFC		RMT1		LTH4		STRN		LASI		RLMAL		RBack		T10		LTH1		LPSI		CLAV		LLFC		RUA1		LACR1		RCAL		LTB3		RElbowM		RTH3		LCAL		RTH1		RFHD		RElbow		LTB1		LMMAL		LTB2		LFHD		RTH4		RASI		LMFC		LTB4		RMMAL		LMT5		RMFC		RACR1		RWRR		RWRU		LLMAL		RTB4		LToe		LMT1
			X1	Y1	Z1	X2	Y2	Z2	X3	Y3	Z3	X4	Y4	Z4	X5	Y5	Z5	X6	Y6	Z6	X7	Y7	Z7	X8	Y8	Z8	X9	Y9	Z9	X10	Y10	Z10	X11	Y11	Z11	X12	Y12	Z12	X13	Y13	Z13	X14	Y14	Z14	X15	Y15	Z15	X16	Y16	Z16	X17	Y17	Z17	X18	Y18	Z18	X19	Y19	Z19	X20	Y20	Z20	X21	Y21	Z21	X22	Y22	Z22	X23	Y23	Z23	X24	Y24	Z24	X25	Y25	Z25	X26	Y26	Z26	X27	Y27	Z27	X28	Y28	Z28	X29	Y29	Z29	X30	Y30	Z30	X31	Y31	Z31	X32	Y32	Z32	X33	Y33	Z33	X34	Y34	Z34	X35	Y35	Z35	X36	Y36	Z36	X37	Y37	Z37	X38	Y38	Z38	X39	Y39	Z39	X40	Y40	Z40	X41	Y41	Z41	X42	Y42	Z42	X43	Y43	Z43	X44	Y44	Z44	X45	Y45	Z45	X46	Y46	Z46	X47	Y47	Z47	X48	Y48	Z48	X49	Y49	Z49	X50	Y50	Z50	X51	Y51	Z51	X52	Y52	Z52	X53	Y53	Z53	X54	Y54	Z54	X55	Y55	Z55	X56	Y56	Z56	X57	Y57	Z57	X58	Y58	Z58	X59	Y59	Z59	X60	Y60	Z60	X61	Y61	Z61

714	3.57	280.97	836.69	339.82	211.99	610.46	-148.05	267.4	713.68	185.38	144.01	1645.6	-46.989	185.05	865.91	-258.1	131.07	1296.7	-233.45	140.31	993.01	-268.66	260.24	834.05	-271.21	175.57	991.29	344.98	106.18	1141.2	-258.8	196.18	187.22	101.77	240.2	367.82	117.95	332.38	29.27	123.21	199.18	272.53	174.6	227.41	26.047	178.68	154.02	1650.9	94.742	255.39	885.34	-216.97	263.37	715.7	-134.52	77.916	1129.3	-186.59	5.7393	1028	92.204	115.38	1515.8	29.354	205.04	495.99	194.85	276.34	38.079	99.247	195.48	701.12	-152.83	285.06	1249.4	16.167	197.29	1033.8	-108.32	136.62	70.426	144.32	44.329	1429.9	166.57	3.8047	1295.7	38.277	181.69	793.51	-156.04	-3.3221	1021	14.971	243.39	1423.1	21.725	211.68	516.1	-144.02	173.75	1291.8	284.64	174.59	1467.6	-140.06	77.564	35.659	95.907	40.278	260.37	-85.591	106.18	1121.5	255.11	206.11	612.16	204.26	-152.9	213.31	-69.194	192.48	801.33	229.62	330.23	1680.4	60.343	141.45	1138.5	325.58	184.33	377.64	-83.728	-45.786	193.79	-46.713	94.594	347.96	-150.92	325.84	1678.5	-16.218	199.46	710.73	230.47	225.77	1040.8	176.48	247.7	513.22	-17.692	115.1	321.1	-83.213	167.05	91.85	62.349	-62.423	100.46	-162.46	206.63	512.9	63.94	199.7	1461.5	184.06	268.52	874.04	285.82	216.98	859.75	340	-88.909	208.63	-123.02	218.7	277.24	108.24	20.015	47.267	-116.16	-13.875	73.879	-90.668
715	3.575	291.3	838.47	338.61	220.21	612.05	-147.82	270.17	713.18	185.62	149	1646.1	-46.797	186.32	865.62	-256.6	135.03	1296.8	-232.76	142.48	993.02	-267.19	261.21	833.07	-269.55	184.61	992.04	344.93	109.4	1141.5	-257.51	196.44	187.07	101.78	241.04	367.6	117.97	332.39	29.266	123.27	199.77	272.39	174.61	227.4	26.056	178.63	159.12	1651.4	94.92	256.75	884.5	-215.4	270.61	717.78	-134.43	81.215	1129.9	-185.23	10.482	1028.6	92.81	120.38	1516.3	29.654	206.37	495.9	194.96	276.35	38.07	99.2	202.68	702.57	-152.56	289.87	1249.8	16.268	202.03	1034.4	-108.01	136.66	70.46	144.27	49.601	1430.5	167.14	8.755	1296.3	39	188.05	794.85	-155.72	1.3195	1021.6	15.529	248.36	1423.5	21.877	220.87	517.85	-143.68	180.41	1292.6	284.8	179.23	1467.9	-139.86	77.508	35.723	95.912	52.868	259.75	-85.144	113.4	1121.9	255.86	208.25	612.15	204.47	-139.83	209.37	-68.149	196.13	801.43	229.9	335.31	1680.8	60.392	149.14	1139.1	326.08	195.48	378.85	-83.657	-32.11	191.95	-46.034	105.62	348.37	-150.4	330.87	1679	-16.172	202.89	709.97	229.42	230.46	1041.3	176.82	256.92	515.13	-17.539	126.91	321.4	-82.97	167.03	91.835	62.35	-47.092	98.951	-162.1	208.02	512.86	63.989	204.99	1462.2	184.16	278.04	875.71	284.72	227.05	860.85	339.39	-75.751	206.26	-122.19	219.25	277.06	108.26	36.6	47.282	-116.3	2.2519	73.144	-90.558
716	3.58	301.63	840.29	337.38	228.37	613.65	-147.59	272.92	712.69	185.83	153.98	1646.5	-46.624	187.61	865.36	-255.1	138.96	1297	-232.11	144.63	993.05	-265.73	262.19	832.13	-267.88	193.65	992.81	344.87	112.57	1141.7	-256.26	196.7	186.94	101.79	241.86	367.39	118	332.4	29.267	123.34	200.34	272.26	174.61	227.4	26.063	178.58	164.2	1651.9	95.079	258.12	883.72	-213.85	277.81	719.86	-134.33	84.49	1130.5	-183.9	15.216	1029.2	93.379	125.38	1516.8	29.939	207.66	495.81	195.06	276.35	38.065	99.156	209.82	704.02	-152.3	294.68	1250.1	16.368	206.81	1034.9	-107.67	136.71	70.497	144.23	54.863	1431.2	167.68	13.695	1296.9	39.697	194.39	796.18	-155.42	5.9437	1022.3	16.048	253.31	1424	22.022	229.94	519.59	-143.35	187.04	1293.3	284.94	183.88	1468.3	-139.67	77.445	35.784	95.925	65.57	258.97	-84.695	120.61	1122.3	256.58	210.36	612.14	204.67	-126.53	205.08	-67.156	199.75	801.53	230.16	340.39	1681.3	60.416	156.81	1139.7	326.56	206.59	380.04	-83.56	-18.247	189.88	-45.372	116.67	348.65	-149.88	335.88	1679.4	-16.149	206.29	709.19	228.27	235.12	1041.8	177.21	266.04	517.05	-17.396	138.76	321.62	-82.711	166.99	91.819	62.362	-31.46	97.216	-161.72	209.38	512.83	64.03	210.27	1462.9	184.24	287.56	877.41	283.6	237.13	862	338.75	-62.385	203.59	-121.38	219.79	276.9	108.27	53.478	47.195	-116.39	18.647	72.261	-90.41
717	3.585	311.95	842.15	336.12	236.46	615.25	-147.36	275.67	712.18	186.02	158.96	1647	-46.468	188.93	865.13	-253.6	142.85	1297.2	-231.49	146.77	993.08	-264.29	263.19	831.23	-266.21	202.68	993.6	344.78	115.71	1141.9	-255.03	196.96	186.8	101.8	242.67	367.18	118.02	332.41	29.272	123.4	200.88	272.14	174.62	227.39	26.069	178.54	169.29	1652.4	95.219	259.51	882.99	-212.32	284.95	721.93	-134.22	87.74	1131.1	-182.6	19.941	1029.8	93.912	130.36	1517.3	30.208	208.91	495.72	195.15	276.36	38.065	99.115	216.91	705.47	-152.05	299.49	1250.5	16.471	211.63	1035.5	-107.31	136.75	70.538	144.19	60.116	1431.8	168.21	18.627	1297.4	40.369	200.7	797.49	-155.13	10.554	1022.9	16.529	258.25	1424.4	22.161	238.91	521.29	-143.01	193.65	1294.1	285.07	188.53	1468.6	-139.5	77.377	35.843	95.944	78.38	258.06	-84.244	127.8	1122.7	257.27	212.44	612.14	204.86	-113	200.48	-66.218	203.34	801.61	230.39	345.47	1681.7	60.413	164.47	1140.3	327.02	217.65	381.21	-83.432	-4.1974	187.6	-44.731	127.74	348.79	-149.36	340.9	1679.7	-16.15	209.64	708.42	227.13	239.74	1042.3	177.63	275.07	518.99	-17.258	150.63	321.76	-82.435	166.94	91.803	62.385	-15.538	95.275	-161.35	210.72	512.79	64.065	215.53	1463.5	184.31	297.08	879.13	282.45	247.19	863.18	338.09	-48.812	200.65	-120.6	220.33	276.74	108.27	70.631	47.015	-116.44	35.297	71.243	-90.234
